# xmcd CD database file
#
# Track frame offsets:
#	150
#	3688
#	25560
#	72080
#	107218
#	133190
#	161722
#	184052
#	235219
#	270471
#	291931
#	320517
#
# Disc length: 4520 seconds
#
# Revision: 0
# Processed by: cddbd v1.5.1PL0 Copyright (c) Steve Scherf et al.
# Submitted via: CDex 1.51
#
DISCID=a911a60c
DTITLE=The Great Guitars - Herb Ellis, Barney Kessel, and Charlie Byrd in Montreal
DYEAR=1984
DGENRE=Jazz
TTITLE0=intro
TTITLE1=Where or When
TTITLE2=Medley: Nuages/Goin' Out of My Head/ Flying Home
TTITLE3=I Love You
TTITLE4=The Shadow of Your Smile (Ellis solo)
TTITLE5=Autumn Leaves (Kessel trio)
TTITLE6=Polka Dots and Moonbeams
TTITLE7=Slow Burn
TTITLE8=O'Barquino (Byrd trio)
TTITLE9=Swing '39 (Byrd trio)
TTITLE10=Someone to Watch Over Me/ Ain't Misbehavin' (Byrd solo)
TTITLE11=Air Mail Special
EXTD=YEAR: 1984
EXTT0=
EXTT1=
EXTT2=
EXTT3=
EXTT4=
EXTT5=
EXTT6=
EXTT7=
EXTT8=
EXTT9=
EXTT10=
EXTT11=
PLAYORDER=
